<?xml version="1.0" encoding="UTF-8"?>
<!DOCTYPE svg PUBLIC "-//W3C//DTD SVG 1.1//EN" "http://www.w3.org/Graphics/SVG/1.1/DTD/svg11.dtd">
<!-- Creator: CorelDRAW Home & Student X7 -->
<svg xmlns="http://www.w3.org/2000/svg" xml:space="preserve" width="228.6mm" height="43.3917mm" version="1.1" style="shape-rendering:geometricPrecision; text-rendering:geometricPrecision; image-rendering:optimizeQuality; fill-rule:evenodd; clip-rule:evenodd"
viewBox="0 0 7441 1412"
 xmlns:xlink="http://www.w3.org/1999/xlink">
 <defs>
  <style type="text/css">
   <![CDATA[
    .fil31 {fill:none}
    .fil0 {fill:#FEFEFE}
    .fil1 {fill:#324B8A}
    .fil2 {fill:white}
    .fil3 {fill:#FEFEFE;fill-rule:nonzero}
    .fil29 {fill:#D2222E;fill-rule:nonzero}
    .fil30 {fill:#00623B;fill-rule:nonzero}
    .fil28 {fill:white;fill-rule:nonzero}
    .fil5 {fill:url(#id0);fill-rule:nonzero}
    .fil15 {fill:url(#id1);fill-rule:nonzero}
    .fil8 {fill:url(#id2);fill-rule:nonzero}
    .fil19 {fill:url(#id3);fill-rule:nonzero}
    .fil17 {fill:url(#id4);fill-rule:nonzero}
    .fil23 {fill:url(#id5);fill-rule:nonzero}
    .fil14 {fill:url(#id6);fill-rule:nonzero}
    .fil20 {fill:url(#id7);fill-rule:nonzero}
    .fil16 {fill:url(#id8);fill-rule:nonzero}
    .fil22 {fill:url(#id9);fill-rule:nonzero}
    .fil10 {fill:url(#id10);fill-rule:nonzero}
    .fil24 {fill:url(#id11);fill-rule:nonzero}
    .fil11 {fill:url(#id12);fill-rule:nonzero}
    .fil18 {fill:url(#id13);fill-rule:nonzero}
    .fil9 {fill:url(#id14);fill-rule:nonzero}
    .fil4 {fill:url(#id15);fill-rule:nonzero}
    .fil12 {fill:url(#id16);fill-rule:nonzero}
    .fil26 {fill:url(#id17);fill-rule:nonzero}
    .fil27 {fill:url(#id18);fill-rule:nonzero}
    .fil21 {fill:url(#id19);fill-rule:nonzero}
    .fil25 {fill:url(#id20);fill-rule:nonzero}
    .fil7 {fill:url(#id21);fill-rule:nonzero}
    .fil6 {fill:url(#id22);fill-rule:nonzero}
    .fil13 {fill:url(#id23);fill-rule:nonzero}
   ]]>
  </style>
  <linearGradient id="id0" gradientUnits="userSpaceOnUse" x1="1129.64" y1="1011.21" x2="1519.97" y2="1011.21">
   <stop offset="0" style="stop-opacity:1; stop-color:#008CCC"/>
   <stop offset="1" style="stop-opacity:1; stop-color:#2905A1"/>
  </linearGradient>
  <linearGradient id="id1" gradientUnits="userSpaceOnUse" x1="1376.52" y1="229.096" x2="1715.11" y2="229.096">
   <stop offset="0" style="stop-opacity:1; stop-color:#CBCFD2"/>
   <stop offset="1" style="stop-opacity:1; stop-color:#3D4D59"/>
  </linearGradient>
  <linearGradient id="id2" gradientUnits="userSpaceOnUse" x1="182.998" y1="1011.21" x2="573.298" y2="1011.21">
   <stop offset="0" style="stop-opacity:1; stop-color:#8FD400"/>
   <stop offset="1" style="stop-opacity:1; stop-color:#0DB02B"/>
  </linearGradient>
  <linearGradient id="id3" gradientUnits="userSpaceOnUse" xlink:href="#id1" x1="181.96" y1="364.261" x2="548.603" y2="364.261">
  </linearGradient>
  <linearGradient id="id4" gradientUnits="userSpaceOnUse" x1="1165.02" y1="311.858" x2="1360.88" y2="311.858">
   <stop offset="0" style="stop-opacity:1; stop-color:#3D4D59"/>
   <stop offset="1" style="stop-opacity:1; stop-color:#CBCFD2"/>
  </linearGradient>
  <linearGradient id="id5" gradientUnits="userSpaceOnUse" xlink:href="#id1" x1="1743.5" y1="499.966" x2="2055.46" y2="499.966">
  </linearGradient>
  <linearGradient id="id6" gradientUnits="userSpaceOnUse" xlink:href="#id1" x1="1743.5" y1="229.096" x2="2055.46" y2="229.096">
  </linearGradient>
  <linearGradient id="id7" gradientUnits="userSpaceOnUse" xlink:href="#id4" x1="588.846" y1="364.29" x2="902.475" y2="364.29">
  </linearGradient>
  <linearGradient id="id8" gradientUnits="userSpaceOnUse" xlink:href="#id1" x1="1743.5" y1="364.372" x2="1986.91" y2="364.372">
  </linearGradient>
  <linearGradient id="id9" gradientUnits="userSpaceOnUse" x1="1030.98" y1="268.132" x2="1295.81" y2="268.132">
   <stop offset="0" style="stop-opacity:1; stop-color:#3D4D59"/>
   <stop offset="1" style="stop-opacity:1; stop-color:#CED2D5"/>
  </linearGradient>
  <linearGradient id="id10" gradientUnits="userSpaceOnUse" x1="756.849" y1="840.271" x2="1054.16" y2="840.271">
   <stop offset="0" style="stop-opacity:1; stop-color:#ED2E38"/>
   <stop offset="1" style="stop-opacity:1; stop-color:#ED6E00"/>
  </linearGradient>
  <linearGradient id="id11" gradientUnits="userSpaceOnUse" xlink:href="#id4" x1="184.394" y1="364.394" x2="301.055" y2="364.394">
  </linearGradient>
  <linearGradient id="id12" gradientUnits="userSpaceOnUse" x1="1558.32" y1="840.271" x2="1954.63" y2="840.271">
   <stop offset="0" style="stop-opacity:1; stop-color:#00B394"/>
   <stop offset="1" style="stop-opacity:1; stop-color:#006647"/>
  </linearGradient>
  <linearGradient id="id13" gradientUnits="userSpaceOnUse" xlink:href="#id4" x1="1198.46" y1="485.254" x2="1340.54" y2="485.254">
  </linearGradient>
  <linearGradient id="id14" gradientUnits="userSpaceOnUse" x1="618.527" y1="840.271" x2="1006.65" y2="840.271">
   <stop offset="0" style="stop-opacity:1; stop-color:#F7D917"/>
   <stop offset="1" style="stop-opacity:1; stop-color:#ED6E00"/>
  </linearGradient>
  <linearGradient id="id15" gradientUnits="userSpaceOnUse" x1="1131.45" y1="710.894" x2="1409.15" y2="710.894">
   <stop offset="0" style="stop-opacity:1; stop-color:#EC82D3"/>
   <stop offset="1" style="stop-opacity:1; stop-color:#BA1FB5"/>
  </linearGradient>
  <linearGradient id="id16" gradientUnits="userSpaceOnUse" xlink:href="#id2" x1="1647.09" y1="840.271" x2="2051.76" y2="840.271">
  </linearGradient>
  <linearGradient id="id17" gradientUnits="userSpaceOnUse" xlink:href="#id4" x1="1016.27" y1="413.1" x2="1137.75" y2="413.1">
  </linearGradient>
  <linearGradient id="id18" gradientUnits="userSpaceOnUse" xlink:href="#id4" x1="1485.74" y1="412.407" x2="1607.22" y2="412.407">
  </linearGradient>
  <linearGradient id="id19" gradientUnits="userSpaceOnUse" xlink:href="#id4" x1="659.119" y1="364.29" x2="979.227" y2="364.29">
  </linearGradient>
  <linearGradient id="id20" gradientUnits="userSpaceOnUse" xlink:href="#id1" x1="429.514" y1="364.267" x2="546.175" y2="364.267">
  </linearGradient>
  <linearGradient id="id21" gradientUnits="userSpaceOnUse" xlink:href="#id0" x1="210.3" y1="710.894" x2="437.01" y2="710.894">
  </linearGradient>
  <linearGradient id="id22" gradientUnits="userSpaceOnUse" x1="1129.25" y1="775.288" x2="1515.29" y2="775.288">
   <stop offset="0" style="stop-opacity:1; stop-color:#008CCC"/>
   <stop offset="1" style="stop-opacity:1; stop-color:#82C7E6"/>
  </linearGradient>
  <linearGradient id="id23" gradientUnits="userSpaceOnUse" xlink:href="#id12" x1="255.982" y1="775.288" x2="495.259" y2="775.288">
  </linearGradient>
 </defs>
 <g id="Layer_x0020_1">
  <metadata id="CorelCorpID_0Corel-Layer"/>
  <rect class="fil0" x="4851" y="339" width="1145" height="750"/>
  <polygon class="fil1" points="4851,1089 4851,1089 5996,1089 5996,339 4851,339 "/>
  <polygon class="fil2" points="5638,587 5638,587 5646,563 5654,587 5679,587 5658,602 5666,627 5646,612 5625,627 5633,602 5612,587 "/>
  <polygon class="fil2" points="5135,708 5135,708 5161,708 5169,683 5177,708 5202,708 5182,723 5190,748 5169,732 5148,748 5156,723 "/>
  <polygon class="fil2" points="5222,884 5222,884 5201,869 5180,884 5188,860 5167,845 5193,845 5201,820 5209,845 5235,845 5214,860 "/>
  <polygon class="fil2" points="5214,602 5214,602 5222,627 5201,612 5180,627 5188,602 5167,587 5193,587 5201,563 5209,587 5235,587 "/>
  <polygon class="fil2" points="5284,492 5284,492 5292,468 5300,492 5326,492 5305,508 5313,532 5292,517 5271,532 5279,508 5258,492 "/>
  <polygon class="fil2" points="5320,977 5320,977 5299,961 5278,977 5286,952 5265,937 5291,937 5299,912 5307,937 5333,937 5312,952 "/>
  <polygon class="fil2" points="5446,1004 5446,1004 5425,989 5404,1004 5412,980 5391,965 5417,965 5425,940 5433,965 5459,965 5438,980 "/>
  <polygon class="fil2" points="5438,471 5438,471 5446,495 5425,480 5404,495 5412,471 5391,456 5417,456 5425,431 5433,456 5459,456 "/>
  <polygon class="fil2" points="5568,977 5568,977 5547,961 5526,977 5534,952 5514,937 5539,937 5547,912 5555,937 5581,937 5560,952 "/>
  <polygon class="fil2" points="5567,508 5567,508 5575,532 5554,517 5534,532 5542,508 5521,492 5546,492 5554,468 5562,492 5588,492 "/>
  <polygon class="fil2" points="5666,884 5666,884 5646,869 5625,884 5633,860 5612,845 5638,845 5646,820 5654,845 5679,845 5658,860 "/>
  <polygon class="fil2" points="5699,748 5678,732 5657,748 5665,723 5644,708 5670,708 5678,683 5686,708 5712,708 5691,723 "/>
  <path class="fil3" d="M6153 340l0 53c0,20 9,29 21,29 13,0 22,-9 22,-29l0 -53 12 0 0 52c0,28 -15,39 -35,39 -18,0 -32,-10 -32,-38l0 -53 12 0z"/>
  <path class="fil3" d="M6227 383c0,-7 0,-13 0,-18l10 0 1 11 0 0c3,-6 11,-12 21,-12 9,0 23,5 23,27l0 39 -11 0 0 -38c0,-10 -4,-19 -15,-19 -8,0 -14,6 -16,12 -1,2 -1,4 -1,6l0 39 -12 0 0 -47z"/>
  <path class="fil3" d="M6301 365l12 0 0 65 -12 0 0 -65zm14 -18l0 0c0,4 -3,7 -8,7 -4,0 -7,-3 -7,-7 0,-4 3,-8 7,-8 5,0 8,4 8,8z"/>
  <path class="fil3" d="M6367 397c-13,-1 -28,2 -28,14 0,8 5,12 11,12 9,0 14,-6 16,-11 1,-2 1,-3 1,-4l0 -11zm-29 -43l0 0c0,-9 4,-14 9,-14 3,0 6,1 9,3 2,1 4,2 5,2 2,0 4,-1 4,-5l6 0c0,8 -3,13 -9,13 -3,0 -5,-1 -8,-3 -3,-1 -4,-2 -6,-2 -2,0 -3,2 -3,6l-7 0zm40 60l0 0c0,6 0,11 1,16l-11 0 0 -8 -1 0c-3,5 -10,9 -20,9 -13,0 -19,-9 -19,-18 0,-16 13,-25 38,-24l0 -2c0,-5 -1,-15 -14,-15 -6,0 -13,2 -17,5l-3 -8c5,-3 13,-5 22,-5 19,0 24,13 24,26l0 24z"/>
  <path class="fil3" d="M6404 397c0,15 8,25 20,25 11,0 20,-10 20,-25 0,-11 -6,-24 -20,-24 -14,0 -20,12 -20,24zm52 0l0 0c0,24 -17,34 -33,34 -17,0 -31,-13 -31,-33 0,-22 15,-34 32,-34 19,0 32,13 32,33z"/>
  <polygon class="fil3" points="6546,387 6511,387 6511,420 6550,420 6550,430 6499,430 6499,340 6548,340 6548,349 6511,349 6511,378 6546,378 "/>
  <path class="fil3" d="M6618 412c0,7 0,13 0,18l-10 0 -1 -11 0 0c-3,5 -10,12 -22,12 -10,0 -22,-6 -22,-28l0 -38 12 0 0 36c0,12 4,20 14,20 8,0 14,-5 16,-10 0,-2 1,-4 1,-6l0 -40 12 0 0 47z"/>
  <path class="fil3" d="M6637 385c0,-7 0,-14 0,-20l10 0 0 13 1 0c3,-9 10,-14 18,-14 1,0 2,0 3,0l0 11c-1,0 -2,0 -4,0 -8,0 -14,6 -16,15 0,1 0,3 0,5l0 35 -12 0 0 -45z"/>
  <path class="fil3" d="M6687 397c0,15 8,25 19,25 12,0 20,-10 20,-25 0,-11 -5,-24 -19,-24 -14,0 -20,12 -20,24zm51 0l0 0c0,24 -17,34 -32,34 -18,0 -31,-13 -31,-33 0,-22 14,-34 32,-34 18,0 31,13 31,33z"/>
  <path class="fil3" d="M6764 403c0,2 1,4 1,5 2,8 9,14 18,14 12,0 19,-10 19,-25 0,-13 -7,-24 -19,-24 -8,0 -16,6 -18,14 0,2 -1,4 -1,5l0 11zm-11 -17l0 0c0,-8 0,-15 -1,-21l11 0 0 11 1 0c4,-8 12,-12 23,-12 15,0 27,13 27,32 0,24 -14,35 -29,35 -9,0 -16,-3 -20,-10l-1 0 0 35 -11 0 0 -70z"/>
  <path class="fil3" d="M6870 391c0,-7 -3,-19 -16,-19 -13,0 -18,11 -18,19l34 0zm-35 8l0 0c1,16 11,23 23,23 8,0 13,-1 17,-3l3 8c-5,2 -12,4 -22,4 -20,0 -32,-13 -32,-33 0,-19 12,-34 30,-34 22,0 27,18 27,30 0,2 0,4 0,5l-46 0z"/>
  <path class="fil3" d="M6896 365l12 0 0 65 -12 0 0 -65zm13 -18l0 0c0,4 -3,7 -8,7 -4,0 -7,-3 -7,-7 0,-4 3,-8 8,-8 4,0 7,4 7,8z"/>
  <path class="fil3" d="M6961 397c-13,-1 -27,2 -27,14 0,8 5,12 11,12 8,0 14,-6 16,-11 0,-2 0,-3 0,-4l0 -11zm11 17l0 0c0,6 1,11 1,16l-10 0 -1 -8 0 0c-4,5 -11,9 -20,9 -13,0 -20,-9 -20,-18 0,-16 14,-25 39,-24l0 -2c0,-5 -2,-15 -15,-15 -6,0 -12,2 -17,5l-3 -8c6,-3 14,-5 22,-5 20,0 24,13 24,26l0 24z"/>
  <polygon class="fil3" points="6140,867 6189,867 6189,876 6149,876 6149,898 6185,898 6185,906 6149,906 6149,939 6140,939 "/>
  <path class="fil3" d="M6208 887l0 34c0,3 0,5 1,7 1,3 4,5 8,5 6,0 10,-3 13,-9 1,-3 1,-7 1,-12l0 -25 9 0 0 52 -8 0 0 -8c-1,2 -3,4 -4,5 -4,3 -8,4 -12,4 -8,0 -13,-2 -15,-7 -2,-3 -2,-6 -2,-11l0 -35 9 0z"/>
  <path class="fil3" d="M6254 887l9 0 0 7c2,-3 5,-5 8,-7 2,-1 6,-2 9,-2 7,0 12,3 15,8 1,3 2,7 2,12l0 34 -9 0 0 -33c0,-3 0,-6 -1,-8 -2,-3 -5,-5 -9,-5 -2,0 -4,0 -5,1 -2,1 -4,2 -6,4 -2,2 -3,4 -3,6 -1,1 -1,4 -1,8l0 27 -9 0 0 -52z"/>
  <path class="fil3" d="M6319 927c3,4 6,6 12,6 4,0 7,-2 10,-5 2,-4 4,-9 4,-15 0,-7 -2,-12 -4,-15 -3,-3 -6,-5 -10,-5 -5,0 -8,2 -11,5 -3,4 -4,9 -4,15 0,6 1,11 3,14zm20 -39l0 0c2,1 3,3 5,5l0 -26 9 0 0 72 -8 0 0 -7c-2,3 -5,5 -7,7 -3,1 -6,2 -10,2 -6,0 -11,-3 -15,-8 -4,-4 -7,-11 -7,-19 0,-8 2,-14 6,-20 4,-6 10,-8 17,-8 4,0 7,0 10,2z"/>
  <path class="fil3" d="M6398 927c3,-5 4,-10 4,-15 0,-5 -1,-9 -3,-12 -2,-5 -6,-7 -12,-7 -6,0 -10,2 -12,6 -2,4 -4,9 -4,15 0,5 2,10 4,14 2,3 6,5 11,5 6,0 10,-2 12,-6zm6 -35l0 0c5,4 7,11 7,20 0,8 -2,15 -6,21 -4,5 -11,8 -19,8 -7,0 -13,-3 -17,-7 -5,-5 -7,-12 -7,-20 0,-9 3,-16 7,-21 4,-5 10,-8 18,-8 7,0 12,2 17,7z"/>
  <polygon class="fil3" points="6452,867 6504,867 6504,876 6461,876 6461,898 6500,898 6500,906 6461,906 6461,930 6504,930 6504,939 6452,939 "/>
  <path class="fil3" d="M6525 887l0 34c0,3 1,5 1,7 2,3 5,5 9,5 6,0 10,-3 12,-9 1,-3 2,-7 2,-12l0 -25 9 0 0 52 -9 0 0 -8c-1,2 -2,4 -4,5 -3,3 -7,4 -12,4 -7,0 -12,-2 -15,-7 -1,-3 -2,-6 -2,-11l0 -35 9 0z"/>
  <path class="fil3" d="M6572 887l9 0 0 9c0,-2 2,-4 5,-7 2,-2 5,-4 9,-4 0,0 0,0 1,0 0,0 1,0 2,1l0 9c-1,0 -1,0 -2,0 0,0 -1,0 -1,0 -5,0 -8,1 -10,4 -3,3 -4,6 -4,10l0 30 -9 0 0 -52z"/>
  <path class="fil3" d="M6638 927c2,-5 3,-10 3,-15 0,-5 -1,-9 -2,-12 -3,-5 -7,-7 -13,-7 -5,0 -9,2 -12,6 -2,4 -3,9 -3,15 0,5 1,10 3,14 3,3 7,5 12,5 6,0 10,-2 12,-6zm5 -35l0 0c5,4 7,11 7,20 0,8 -2,15 -6,21 -4,5 -10,8 -19,8 -7,0 -13,-3 -17,-7 -4,-5 -6,-12 -6,-20 0,-9 2,-16 6,-21 5,-5 11,-8 18,-8 7,0 13,2 17,7z"/>
  <path class="fil3" d="M6693 928c3,-4 5,-9 5,-16 0,-4 -1,-7 -2,-10 -3,-6 -7,-9 -13,-9 -6,0 -10,3 -12,9 -2,3 -2,8 -2,13 0,4 0,7 2,10 2,5 6,8 12,8 4,0 8,-2 10,-5zm-33 -41l0 0 9 0 0 7c2,-3 4,-4 6,-6 3,-2 6,-3 10,-3 6,0 11,3 15,7 5,5 7,11 7,20 0,11 -3,19 -9,24 -4,3 -9,5 -14,5 -4,0 -7,-1 -10,-3 -1,-1 -3,-3 -5,-5l0 27 -9 0 0 -73z"/>
  <path class="fil3" d="M6752 909c0,-4 -1,-7 -2,-10 -3,-4 -7,-6 -12,-6 -4,0 -8,1 -10,4 -3,3 -4,7 -5,12l29 0zm-3 -21l0 0c4,2 6,4 8,7 2,2 3,6 4,9 0,2 0,6 0,12l-38 0c0,5 2,9 4,12 2,4 6,5 11,5 4,0 8,-1 11,-4 1,-2 2,-4 3,-6l9 0c-1,1 -1,4 -3,6 -1,2 -2,4 -4,6 -3,2 -6,4 -10,5 -2,1 -4,1 -7,1 -6,0 -12,-3 -16,-7 -5,-5 -7,-12 -7,-20 0,-9 2,-16 7,-21 4,-5 10,-8 17,-8 4,0 8,1 11,3z"/>
  <path class="fil3" d="M6781 887l0 34c0,3 1,5 1,7 2,3 5,5 9,5 6,0 10,-3 12,-9 1,-3 2,-7 2,-12l0 -25 9 0 0 52 -9 0 1 -8c-2,2 -3,4 -5,5 -3,3 -7,4 -12,4 -7,0 -12,-2 -15,-7 -1,-3 -2,-6 -2,-11l0 -35 9 0z"/>
  <path class="fil3" d="M6865 927c3,4 6,6 12,6 4,0 7,-2 10,-5 2,-4 4,-9 4,-15 0,-7 -2,-12 -5,-15 -2,-3 -6,-5 -10,-5 -4,0 -7,2 -10,5 -3,4 -4,9 -4,15 0,6 1,11 3,14zm20 -39l0 0c1,1 3,3 5,5l0 -26 9 0 0 72 -8 0 0 -7c-2,3 -5,5 -8,7 -2,1 -6,2 -9,2 -6,0 -11,-3 -15,-8 -5,-4 -7,-11 -7,-19 0,-8 2,-14 6,-20 4,-6 10,-8 17,-8 4,0 7,0 10,2z"/>
  <path class="fil3" d="M6947 909c0,-4 -1,-7 -2,-10 -3,-4 -7,-6 -12,-6 -4,0 -8,1 -10,4 -3,3 -4,7 -5,12l29 0zm-3 -21l0 0c4,2 6,4 8,7 2,2 3,6 4,9 0,2 0,6 0,12l-38 0c0,5 2,9 4,12 2,4 6,5 11,5 4,0 8,-1 11,-4 1,-2 2,-4 3,-6l9 0c-1,1 -1,4 -3,6 -1,2 -2,4 -4,6 -3,2 -6,4 -10,5 -2,1 -4,1 -7,1 -6,0 -12,-3 -16,-7 -5,-5 -7,-12 -7,-20 0,-9 2,-16 7,-21 4,-5 10,-8 17,-8 4,0 8,1 11,3z"/>
  <path class="fil3" d="M6166 1059c3,0 6,-1 8,-1 4,-2 7,-4 9,-8 2,-3 3,-6 4,-11 1,-3 1,-5 1,-7 0,-9 -2,-16 -5,-21 -4,-5 -9,-8 -17,-8l-17 0 0 56 17 0zm-27 -64l0 0 29 0c10,0 17,4 23,11 4,6 7,14 7,24 0,7 -2,14 -4,21 -5,10 -14,16 -26,16l-29 0 0 -72z"/>
  <path class="fil3" d="M6245 1036c0,-3 -1,-6 -2,-9 -2,-4 -6,-6 -12,-6 -4,0 -7,1 -10,4 -3,3 -4,7 -4,11l28 0zm-3 -20l0 0c4,2 6,4 8,7 2,2 3,5 4,9 0,2 0,6 0,12l-38 0c1,5 2,9 4,12 2,4 6,5 11,5 4,0 8,-1 11,-4 1,-2 2,-4 3,-7l9 0c0,2 -1,4 -3,7 -1,2 -2,4 -4,6 -3,2 -6,4 -10,5 -2,0 -4,1 -7,1 -6,0 -12,-3 -16,-7 -5,-5 -7,-12 -7,-20 0,-9 2,-16 7,-21 4,-5 10,-8 17,-8 4,0 8,1 11,3z"/>
  <path class="fil3" d="M6271 1050c0,3 1,6 2,7 2,3 6,4 12,4 3,0 6,0 9,-2 2,-1 3,-3 3,-6 0,-2 -1,-4 -3,-5 -1,-1 -3,-2 -7,-3l-7 -2c-5,-1 -8,-2 -10,-3 -4,-3 -6,-6 -6,-10 0,-5 2,-9 5,-12 4,-3 9,-5 15,-5 8,0 14,2 17,7 2,3 3,6 3,10l-8 0c0,-2 -1,-4 -2,-6 -2,-2 -6,-3 -11,-3 -3,0 -6,0 -8,2 -1,1 -2,3 -2,5 0,2 1,4 3,5 2,1 4,2 6,2l6 2c7,1 11,3 13,4 3,2 5,6 5,11 0,4 -2,8 -5,12 -4,3 -9,5 -17,5 -7,0 -13,-2 -16,-5 -4,-4 -5,-8 -6,-14l9 0z"/>
  <path class="fil3" d="M6351 1036c0,-3 -1,-6 -2,-9 -3,-4 -7,-6 -12,-6 -4,0 -8,1 -10,4 -3,3 -4,7 -5,11l29 0zm-3 -20l0 0c4,2 6,4 8,7 2,2 3,5 3,9 1,2 1,6 1,12l-38 0c0,5 2,9 4,12 2,4 6,5 11,5 4,0 8,-1 11,-4 1,-2 2,-4 3,-7l9 0c-1,2 -1,4 -3,7 -1,2 -2,4 -4,6 -3,2 -6,4 -10,5 -2,0 -4,1 -7,1 -7,0 -12,-3 -16,-7 -5,-5 -7,-12 -7,-20 0,-9 2,-16 7,-21 4,-5 10,-8 17,-8 4,0 8,1 11,3z"/>
  <path class="fil3" d="M6371 1015l9 0 0 7c2,-3 5,-5 8,-7 2,-1 5,-2 9,-2 7,0 12,3 15,8 1,3 2,7 2,12l0 34 -9 0 0 -33c0,-3 0,-6 -1,-8 -2,-3 -5,-5 -9,-5 -2,0 -4,0 -5,1 -2,1 -4,2 -6,4 -2,2 -3,4 -3,6 -1,1 -1,4 -1,7l0 28 -9 0 0 -52z"/>
  <polygon class="fil3" points="6431,1015 6445,1057 6460,1015 6470,1015 6450,1067 6441,1067 6421,1015 "/>
  <path class="fil3" d="M6510 1055c2,-5 3,-10 3,-15 0,-5 -1,-9 -2,-12 -3,-5 -7,-7 -13,-7 -5,0 -9,2 -12,6 -2,4 -3,9 -3,15 0,5 1,10 3,14 3,3 7,5 12,5 6,0 10,-2 12,-6zm5 -35l0 0c5,4 7,11 7,20 0,8 -2,15 -6,20 -4,6 -10,9 -19,9 -7,0 -13,-3 -17,-8 -4,-4 -6,-11 -6,-19 0,-9 2,-16 6,-21 5,-5 11,-8 18,-8 7,0 13,2 17,7z"/>
  <polygon class="fil3" points="6533,995 6542,995 6542,1067 6533,1067 "/>
  <polygon class="fil3" points="6560,1015 6574,1057 6588,1015 6598,1015 6578,1067 6569,1067 6549,1015 "/>
  <path class="fil3" d="M6605 1015l9 0 0 52 -9 0 0 -52zm0 -20l0 0 9 0 0 10 -9 0 0 -10z"/>
  <path class="fil3" d="M6628 1015l8 0 0 7c2,-3 4,-5 6,-6 3,-2 6,-3 10,-3 4,0 7,1 10,3 1,2 3,3 4,6 2,-3 4,-5 7,-7 2,-1 5,-2 9,-2 7,0 11,3 14,8 1,3 2,6 2,11l0 35 -9 0 0 -37c0,-3 -1,-5 -3,-7 -1,-1 -4,-2 -6,-2 -3,0 -7,2 -9,4 -3,2 -4,6 -4,11l0 31 -9 0 0 -34c0,-4 0,-7 -1,-8 -1,-3 -4,-4 -7,-4 -4,0 -7,2 -10,4 -2,3 -4,7 -4,14l0 28 -8 0 0 -52z"/>
  <path class="fil3" d="M6747 1036c-1,-3 -2,-6 -3,-9 -2,-4 -6,-6 -12,-6 -4,0 -7,1 -10,4 -3,3 -4,7 -4,11l29 0zm-4 -20l0 0c4,2 6,4 8,7 2,2 3,5 4,9 0,2 1,6 1,12l-39 0c1,5 2,9 4,12 3,4 6,5 11,5 5,0 8,-1 11,-4 2,-2 3,-4 3,-7l9 0c0,2 -1,4 -2,7 -2,2 -3,4 -5,6 -2,2 -6,4 -10,5 -2,0 -4,1 -7,1 -6,0 -12,-3 -16,-7 -5,-5 -7,-12 -7,-20 0,-9 2,-16 7,-21 4,-5 10,-8 18,-8 3,0 7,1 10,3z"/>
  <path class="fil3" d="M6767 1015l8 0 0 7c3,-3 5,-5 8,-7 3,-1 6,-2 9,-2 8,0 13,3 15,8 2,3 2,7 2,12l0 34 -9 0 0 -33c0,-3 0,-6 -1,-8 -1,-3 -4,-5 -8,-5 -3,0 -4,0 -6,1 -2,1 -4,2 -6,4 -1,2 -2,4 -3,6 0,1 0,4 0,7l0 28 -9 0 0 -52z"/>
  <path class="fil3" d="M6824 1000l9 0 0 15 8 0 0 7 -8 0 0 34c0,2 1,3 2,4 1,0 2,0 3,0l2 0c0,0 1,0 1,0l0 7c-1,0 -2,0 -3,1 -1,0 -2,0 -3,0 -4,0 -7,-1 -9,-3 -1,-3 -2,-5 -2,-9l0 -34 -7 0 0 -7 7 0 0 -15z"/>
  <path class="fil3" d="M6883 1055c2,-5 3,-10 3,-15 0,-5 -1,-9 -2,-12 -3,-5 -7,-7 -13,-7 -5,0 -9,2 -12,6 -2,4 -3,9 -3,15 0,5 1,10 3,14 3,3 7,5 12,5 6,0 10,-2 12,-6zm5 -35l0 0c5,4 7,11 7,20 0,8 -2,15 -6,20 -4,6 -10,9 -19,9 -7,0 -13,-3 -17,-8 -4,-4 -6,-11 -6,-19 0,-9 2,-16 6,-21 5,-5 11,-8 18,-8 7,0 13,2 17,7z"/>
  <path class="fil3" d="M6968 1028c4,0 8,-1 10,-3 3,-2 4,-5 4,-10 0,-5 -2,-8 -5,-10 -2,-1 -5,-2 -8,-2l-23 0 0 25 22 0zm-32 -33l0 0 33 0c5,0 10,1 13,2 7,3 10,9 10,17 0,5 -1,8 -3,11 -1,3 -4,5 -7,7 3,1 5,2 6,4 2,2 3,5 3,9l0 10c0,2 0,5 1,6 0,2 1,4 3,4l0 2 -12 0c0,-1 -1,-2 -1,-3 0,-1 0,-2 0,-5l-1 -12c0,-5 -2,-8 -5,-10 -2,-1 -5,-1 -9,-1l-21 0 0 31 -10 0 0 -72z"/>
  <path class="fil3" d="M7042 1036c-1,-3 -1,-6 -3,-9 -2,-4 -6,-6 -12,-6 -4,0 -7,1 -10,4 -3,3 -4,7 -4,11l29 0zm-3 -20l0 0c3,2 6,4 8,7 1,2 2,5 3,9 1,2 1,6 1,12l-38 0c0,5 1,9 3,12 3,4 6,5 11,5 5,0 8,-1 11,-4 2,-2 3,-4 3,-7l9 0c0,2 -1,4 -2,7 -2,2 -3,4 -5,6 -2,2 -5,4 -9,5 -2,0 -5,1 -8,1 -6,0 -11,-3 -16,-7 -4,-5 -7,-12 -7,-20 0,-9 3,-16 7,-21 5,-5 10,-8 18,-8 4,0 7,1 11,3z"/>
  <path class="fil3" d="M7092 1026c-3,-3 -6,-5 -10,-5 -6,0 -10,3 -13,9 -1,3 -1,7 -1,12 0,6 1,11 3,14 2,3 6,4 10,4 6,0 10,-3 13,-8 1,-3 2,-7 2,-12 0,-6 -1,-11 -4,-14zm-1 -9l0 0c2,1 3,2 5,5l0 -7 8 0 0 48c0,6 -1,12 -3,15 -3,8 -10,11 -20,11 -6,0 -11,-1 -14,-4 -4,-2 -6,-6 -7,-12l9 0c0,3 1,5 3,6 2,2 5,3 9,3 7,0 11,-3 13,-7 1,-3 2,-8 2,-15 -2,2 -4,4 -7,6 -2,1 -5,2 -9,2 -6,0 -11,-2 -15,-7 -4,-4 -7,-10 -7,-19 0,-9 3,-16 7,-21 4,-5 9,-7 15,-7 4,0 8,1 11,3z"/>
  <path class="fil3" d="M7118 1015l9 0 0 52 -9 0 0 -52zm0 -20l0 0 9 0 0 10 -9 0 0 -10z"/>
  <path class="fil3" d="M7172 1055c3,-5 4,-10 4,-15 0,-5 -1,-9 -3,-12 -2,-5 -6,-7 -12,-7 -6,0 -10,2 -12,6 -2,4 -4,9 -4,15 0,5 2,10 4,14 2,3 6,5 12,5 5,0 9,-2 11,-6zm6 -35l0 0c5,4 7,11 7,20 0,8 -2,15 -6,20 -4,6 -11,9 -19,9 -7,0 -13,-3 -17,-8 -5,-4 -7,-11 -7,-19 0,-9 3,-16 7,-21 4,-5 10,-8 18,-8 7,0 12,2 17,7z"/>
  <path class="fil3" d="M7196 1015l8 0 0 7c2,-3 5,-5 8,-7 3,-1 6,-2 9,-2 8,0 13,3 15,8 2,3 2,7 2,12l0 34 -9 0 0 -33c0,-3 0,-6 -1,-8 -2,-3 -4,-5 -9,-5 -2,0 -3,0 -5,1 -2,1 -4,2 -6,4 -2,2 -2,4 -3,6 0,1 -1,4 -1,7l0 28 -8 0 0 -52z"/>
  <path class="fil3" d="M7261 1059c2,1 4,2 7,2 3,0 6,-1 9,-2 4,-2 7,-6 7,-12l0 -7c-1,1 -3,1 -4,2 -2,0 -4,1 -5,1l-6 1c-3,0 -5,1 -7,2 -3,1 -4,4 -4,7 0,3 1,4 3,6zm18 -24l0 0c2,0 4,-1 4,-2 1,-1 1,-2 1,-4 0,-3 -1,-5 -3,-6 -2,-2 -5,-2 -9,-2 -5,0 -8,1 -10,3 -1,2 -2,4 -2,7l-8 0c0,-7 2,-11 6,-14 4,-3 9,-4 14,-4 6,0 11,1 15,4 4,2 6,6 6,11l0 30c0,1 0,2 0,2 1,1 1,1 3,1 0,0 0,0 1,0 0,0 1,0 1,0l0 6c-1,1 -2,1 -3,1 0,0 -1,0 -3,0 -3,0 -5,-1 -6,-3 -1,-1 -1,-3 -2,-5 -2,2 -4,4 -7,6 -4,2 -8,3 -12,3 -4,0 -8,-2 -11,-5 -4,-3 -5,-6 -5,-11 0,-5 1,-8 4,-11 3,-3 7,-4 12,-5l14 -2z"/>
  <polygon class="fil3" points="7307,995 7316,995 7316,1067 7307,1067 "/>
  <path class="fil4" d="M1321 822c9,-7 16,-13 22,-18 -7,6 -14,12 -22,18zm-192 -120l102 87c38,-41 62,-58 89,-58 26,0 42,15 42,35 0,12 -6,24 -19,38 76,-73 110,-204 -10,-204 -96,0 -151,36 -204,102z"/>
  <polygon class="fil5" points="1130,950 1520,950 1520,1072 1130,1072 "/>
  <path class="fil6" d="M1515 752l0 1c0,71 -37,109 -93,145l-83 53 -210 -1 192 -128c91,-66 143,-222 12,-222 106,0 182,63 182,152z"/>
  <path class="fil7" d="M375 822c9,-7 16,-13 22,-19 -7,7 -15,13 -22,19zm-193 -120l102 87c38,-41 63,-58 89,-58 27,0 42,15 42,35 0,12 -5,24 -18,37 76,-72 109,-203 -10,-203 -97,0 -151,36 -205,102z"/>
  <polygon class="fil8" points="183,950 573,950 573,1072 183,1072 "/>
  <path class="fil9" d="M858 736l0 0c1,0 1,0 1,0 0,0 -1,0 -1,0zm1 0l0 0c0,0 0,0 0,0 0,0 0,0 0,0zm1 0l0 0c0,0 0,0 -1,0 1,0 1,0 1,0zm-254 104l0 0 0 2c0,134 109,240 252,240l2 0c98,0 159,-81 159,-171l0 -2c0,-91 -62,-172 -159,-173 59,1 96,50 96,104l0 2c0,54 -37,103 -96,103 -99,0 -161,-82 -161,-173l0 -2c0,-88 59,-168 153,-171 -139,4 -246,109 -246,241zm252 -241l0 0c-2,0 -4,0 -6,0 2,0 5,0 8,0l-2 0z"/>
  <path class="fil10" d="M858 1082l2 0c2,0 4,0 6,0 -2,0 -5,0 -8,0zm0 -137l0 0c0,0 1,0 1,0 0,0 -1,0 -1,0zm1 0l0 0c0,0 0,0 0,0 0,0 0,0 0,0zm1 0l0 0c0,0 -1,0 -1,0 1,0 1,0 1,0l0 0zm-2 -346l0 0c-98,0 -159,81 -159,171l0 2c0,90 62,172 159,173 -59,-1 -96,-50 -96,-105l0 -1c0,-54 37,-103 96,-103 99,0 161,82 161,173l0 2c0,88 -59,167 -153,171 140,-4 246,-110 246,-242l0 -1c0,-134 -109,-240 -252,-240l-2 0z"/>
  <path class="fil11" d="M1802 736l0 0c0,0 1,0 1,0 -1,0 -1,0 -1,0zm-252 106l0 -2c0,-132 107,-237 246,-241 -94,3 -153,83 -153,171l0 2c0,91 62,173 161,173 59,0 96,-49 96,-103l0 -2c0,-54 -37,-103 -96,-104 97,1 159,82 159,173l0 2c0,90 -61,171 -159,171l-2 0c-143,0 -252,-106 -252,-240zm251 -243l1 0 0 0c-2,0 -4,0 -6,0 1,0 3,0 5,0zm2 137l0 0c0,0 0,0 0,0 0,0 0,0 0,0zm1 0l0 0c0,0 -1,0 -1,0 0,0 1,0 1,0z"/>
  <path class="fil12" d="M2056 839l0 1c0,132 -107,238 -246,242 94,-4 153,-83 153,-171l0 -2c0,-91 -62,-173 -161,-173 -59,0 -96,49 -96,103l0 1c0,55 37,104 96,105 -97,-1 -159,-83 -159,-173l0 -2c0,-90 61,-171 159,-171l2 0c143,0 252,106 252,240zm-251 243l-1 0c2,0 4,0 6,0 -1,0 -3,0 -5,0zm-2 -137l0 0c0,0 0,0 0,0 0,0 0,0 0,0zm1 0l0 0c-1,0 -1,0 -1,0 0,0 1,0 1,0l0 0zm-1 0l0 0c-1,0 -1,0 -1,0 0,0 0,0 1,0z"/>
  <path class="fil13" d="M375 822l-192 128 210 1 82 -53c56,-36 94,-74 94,-145l0 -1c0,-89 -77,-152 -182,-152 130,0 78,156 -12,222z"/>
  <polygon class="fil14" points="1743,181 2055,181 2055,277 1743,277 "/>
  <polygon class="fil15" points="1377,181 1715,181 1715,277 1377,277 "/>
  <polygon class="fil16" points="1743,316 1987,316 1987,413 1743,413 "/>
  <path class="fil17" d="M1197 181l0 0 1 0 0 0 0 0 0 0 0 0c5,0 9,0 13,0 -5,0 -10,0 -16,0l0 0 2 0zm164 129l0 1c0,53 -29,93 -72,112 -42,18 -119,20 -124,20l0 0 0 0 0 -88 31 0c71,0 115,-31 115,-86l0 -3c0,-53 -39,-81 -100,-85 56,3 93,18 116,42 22,22 34,49 34,87z"/>
  <path class="fil18" d="M1374 548l0 0 -140 0 -69 -105c0,0 81,-1 124,-20l85 125z"/>
  <polygon class="fil19" points="182,181 303,181 549,548 427,548 "/>
  <path class="fil20" d="M782 281l0 0c0,0 1,0 1,0 0,0 -1,0 -1,0zm-200 84l0 -1c0,-104 85,-188 195,-191 -75,3 -121,66 -121,135l0 2c0,72 49,137 127,137 47,0 76,-39 76,-82l0 -1c0,-43 -29,-82 -76,-83 77,1 126,66 126,137l0 2c0,71 -49,135 -126,135l-1 0c-113,0 -200,-83 -200,-190zm198 -192l1 0 0 0 0 0 0 0 0 0 0 0 0 0 0 0 0 0 0 0 0 0 0 0 0 0 1 0 0 0c-2,0 -4,0 -5,0 1,0 2,0 3,0zm2 0l0 0 0 0 0 0 0 0 0 0 0 0 0 0 0 0 0 0 1 0 0 0 0 0 0 0 0 0"/>
  <path class="fil21" d="M982 363l0 1c0,105 -84,188 -194,191 74,-2 121,-65 121,-135l0 -2c0,-71 -49,-136 -127,-137 -47,1 -76,39 -76,82l0 1c0,43 29,82 76,83 -77,-1 -126,-65 -126,-137l0 -2c0,-71 48,-135 126,-135l1 0c113,0 199,84 199,190zm-198 192l0 0 0 0 0 0 0 0 0 0 0 0 0 0 0 0 0 0 0 0 -1 0 0 0 0 0 0 0 0 0 5 0c-1,0 -3,0 -4,0zm-1 0l0 0 0 0 0 0 0 0 0 0 0 0 0 0 -1 0 0 0 0 0 0 0 0 0 0 0 0 0m1 -108l0 0c0,0 -1,0 -1,0 0,0 1,0 1,0l0 0z"/>
  <path class="fil22" d="M1196 355l-4 0c29,0 47,-15 47,-38l0 -1c0,-23 -18,-37 -47,-37l-176 0 0 -98 181 0c69,0 114,28 114,85l0 3c0,55 -44,86 -115,86z"/>
  <polygon class="fil23" points="1743,452 2055,452 2055,548 1743,548 "/>
  <polygon class="fil24" points="303,363 303,548 182,548 182,181 182,181 "/>
  <polygon class="fil25" points="549,181 549,548 427,366 427,181 "/>
  <polygon class="fil26" points="1138,279 1138,548 1016,548 1016,279 "/>
  <polygon class="fil27" points="1607,277 1607,548 1486,548 1486,277 "/>
  <path class="fil28" d="M203 1203c10,0 14,-5 14,-13 0,-8 -4,-13 -14,-13l-10 0 0 26 10 0zm-21 -30l0 0 22 0c12,0 19,7 19,17 0,10 -7,17 -19,17l-11 0 0 19 6 0 0 4 -17 0 0 -4 5 0 0 -49 -5 0 0 -4z"/>
  <path class="fil28" d="M248 1202c10,0 14,-5 14,-12 0,-8 -4,-13 -14,-13l-11 0 0 25 11 0zm2 5l0 0 -13 0 0 19 6 0 0 4 -16 0 0 -4 5 0 0 -49 -5 0 0 -4 22 0c12,0 19,7 19,17 0,7 -4,14 -12,16l12 20 6 0 0 4 -9 0 -15 -23z"/>
  <path class="fil28" d="M329 1201c0,-14 -10,-24 -23,-24 -14,0 -24,10 -24,24 0,14 10,25 24,25 13,0 23,-11 23,-25zm-53 0l0 0c0,-17 13,-29 30,-29 16,0 29,12 29,29 0,17 -13,30 -29,30 -17,0 -30,-13 -30,-30z"/>
  <path class="fil28" d="M390 1224c-5,4 -11,7 -19,7 -16,0 -29,-12 -29,-30 0,-17 13,-29 29,-29 8,0 14,3 17,7l0 -6 5 0 0 14 -5 0c-2,-7 -8,-10 -17,-10 -14,0 -23,10 -23,24 0,15 10,25 23,25 9,0 15,-4 18,-7l0 -12 -17 0 0 -4 23 0 0 27 -5 0 0 -6z"/>
  <path class="fil28" d="M424 1202c10,0 14,-5 14,-12 0,-8 -4,-13 -14,-13l-11 0 0 25 11 0zm2 5l0 0 -13 0 0 19 6 0 0 4 -16 0 0 -4 5 0 0 -49 -5 0 0 -4 22 0c12,0 19,7 19,17 0,7 -4,14 -13,16l13 20 6 0 0 4 -10 0 -14 -23z"/>
  <path class="fil28" d="M469 1210l23 0 -11 -32 -12 32zm39 20l0 0 -16 0 0 -4 6 0 -5 -11 -25 0 -4 11 5 0 0 4 -15 0 0 -4 4 0 18 -49 -4 0 0 -4 18 0 0 4 -5 0 18 49 5 0 0 4z"/>
  <polygon class="fil28" points="577,1230 560,1230 560,1226 566,1226 566,1181 546,1213 543,1213 523,1181 523,1226 529,1226 529,1230 513,1230 513,1226 518,1226 518,1177 513,1177 513,1173 524,1173 545,1205 566,1173 577,1173 577,1177 571,1177 571,1226 577,1226 "/>
  <path class="fil28" d="M597 1210l23 0 -11 -32 -12 32zm39 20l0 0 -16 0 0 -4 6 0 -5 -11 -25 0 -5 11 6 0 0 4 -15 0 0 -4 4 0 18 -49 -4 0 0 -4 17 0 0 4 -4 0 18 49 5 0 0 4z"/>
  <path class="fil28" d="M708 1201c0,-14 -10,-24 -24,-24 -13,0 -23,10 -23,24 0,14 10,25 23,25 14,0 24,-11 24,-25zm-53 0l0 0c0,-17 13,-29 29,-29 17,0 30,12 30,29 0,17 -13,30 -30,30 -16,0 -29,-13 -29,-30z"/>
  <path class="fil28" d="M741 1203c9,0 14,-5 14,-13 0,-8 -5,-13 -14,-13l-11 0 0 26 11 0zm-21 -30l0 0 21 0c13,0 20,7 20,17 0,10 -7,17 -20,17l-11 0 0 19 6 0 0 4 -16 0 0 -4 5 0 0 -49 -5 0 0 -4z"/>
  <polygon class="fil28" points="800,1177 775,1177 775,1199 798,1199 798,1203 775,1203 775,1225 801,1225 801,1218 805,1218 805,1230 764,1230 764,1226 769,1226 769,1177 764,1177 764,1173 804,1173 804,1185 800,1185 "/>
  <path class="fil28" d="M833 1202c10,0 15,-5 15,-12 0,-8 -5,-13 -15,-13l-10 0 0 25 10 0zm2 5l0 0 -12 0 0 19 5 0 0 4 -16 0 0 -4 5 0 0 -49 -5 0 0 -4 22 0c13,0 19,7 19,17 0,7 -4,14 -12,16l12 20 6 0 0 4 -9 0 -15 -23z"/>
  <path class="fil28" d="M879 1210l22 0 -11 -32 -11 32zm38 20l0 0 -16 0 0 -4 6 0 -4 -11 -26 0 -4 11 5 0 0 4 -15 0 0 -4 4 0 18 -49 -4 0 0 -4 18 0 0 4 -4 0 18 49 4 0 0 4z"/>
  <path class="fil28" d="M947 1172c8,0 14,3 18,8l0 -7 4 0 0 16 -4 0c-2,-8 -9,-12 -18,-12 -14,0 -23,10 -23,24 0,15 10,25 23,25 8,0 15,-4 20,-10l4 3c-6,8 -14,12 -24,12 -16,0 -29,-13 -29,-30 0,-17 13,-29 29,-29z"/>
  <polygon class="fil28" points="976,1173 992,1173 992,1177 987,1177 987,1226 992,1226 992,1230 976,1230 976,1226 981,1226 981,1177 976,1177 "/>
  <path class="fil28" d="M1051 1201c0,-14 -11,-24 -24,-24 -14,0 -24,10 -24,24 0,14 10,25 24,25 13,0 24,-11 24,-25zm-54 0l0 0c0,-17 14,-29 30,-29 16,0 29,12 29,29 0,17 -13,30 -29,30 -16,0 -30,-13 -30,-30z"/>
  <polygon class="fil28" points="1116,1177 1111,1177 1111,1230 1108,1230 1072,1181 1072,1226 1078,1226 1078,1230 1062,1230 1062,1226 1067,1226 1067,1177 1062,1177 1062,1173 1073,1173 1106,1220 1106,1177 1101,1177 1101,1173 1116,1173 "/>
  <path class="fil28" d="M1134 1210l23 0 -11 -32 -12 32zm39 20l0 0 -16 0 0 -4 6 0 -4 -11 -26 0 -4 11 5 0 0 4 -15 0 0 -4 4 0 18 -49 -4 0 0 -4 18 0 0 4 -5 0 18 49 5 0 0 4z"/>
  <polygon class="fil28" points="1178,1173 1194,1173 1194,1177 1189,1177 1189,1225 1211,1225 1211,1218 1216,1218 1216,1230 1178,1230 1178,1226 1183,1226 1183,1177 1178,1177 "/>
  <path class="fil28" d="M1257 1202c10,0 15,-5 15,-12 0,-8 -5,-13 -15,-13l-10 0 0 25 10 0zm2 5l0 0 -12 0 0 19 5 0 0 4 -16 0 0 -4 5 0 0 -49 -5 0 0 -4 22 0c13,0 19,7 19,17 0,7 -4,14 -12,16l13 20 5 0 0 4 -9 0 -15 -23z"/>
  <polygon class="fil28" points="1323,1177 1299,1177 1299,1199 1322,1199 1322,1203 1299,1203 1299,1225 1325,1225 1325,1218 1329,1218 1329,1230 1288,1230 1288,1226 1293,1226 1293,1177 1288,1177 1288,1173 1328,1173 1328,1185 1323,1185 "/>
  <path class="fil28" d="M1383 1224c-4,4 -10,7 -19,7 -16,0 -29,-12 -29,-30 0,-17 13,-29 29,-29 8,0 14,3 17,7l0 -6 5 0 0 14 -4 0c-2,-7 -8,-10 -18,-10 -13,0 -23,10 -23,24 0,15 10,25 24,25 9,0 14,-4 18,-7l0 -12 -18 0 0 -4 23 0 0 27 -5 0 0 -6z"/>
  <polygon class="fil28" points="1396,1173 1412,1173 1412,1177 1407,1177 1407,1226 1412,1226 1412,1230 1396,1230 1396,1226 1401,1226 1401,1177 1396,1177 "/>
  <path class="fil28" d="M1470 1201c0,-14 -10,-24 -23,-24 -14,0 -24,10 -24,24 0,14 10,25 24,25 13,0 23,-11 23,-25zm-53 0l0 0c0,-17 13,-29 30,-29 16,0 29,12 29,29 0,17 -13,30 -29,30 -17,0 -30,-13 -30,-30z"/>
  <polygon class="fil28" points="1536,1177 1531,1177 1531,1230 1528,1230 1492,1181 1492,1226 1498,1226 1498,1230 1482,1230 1482,1226 1487,1226 1487,1177 1482,1177 1482,1173 1492,1173 1526,1220 1526,1177 1520,1177 1520,1173 1536,1173 "/>
  <path class="fil28" d="M1554 1210l23 0 -11 -32 -12 32zm39 20l0 0 -16 0 0 -4 6 0 -5 -11 -25 0 -5 11 6 0 0 4 -15 0 0 -4 4 0 18 -49 -4 0 0 -4 18 0 0 4 -5 0 18 49 5 0 0 4z"/>
  <polygon class="fil28" points="1598,1173 1614,1173 1614,1177 1609,1177 1609,1225 1631,1225 1631,1218 1636,1218 1636,1230 1598,1230 1598,1226 1603,1226 1603,1177 1598,1177 "/>
  <path class="fil28" d="M1675 1225c17,0 25,-10 25,-24 0,-14 -8,-24 -25,-24l-8 0 0 48 8 0zm-19 -52l0 0 19 0c19,0 31,11 31,28 0,17 -12,29 -31,29l-19 0 0 -4 5 0 0 -49 -5 0 0 -4z"/>
  <path class="fil28" d="M1765 1201c0,-14 -10,-24 -23,-24 -14,0 -24,10 -24,24 0,14 10,25 24,25 13,0 23,-11 23,-25zm-53 0l0 0c0,-17 13,-29 30,-29 16,0 29,12 29,29 0,17 -13,30 -29,30 -17,0 -30,-13 -30,-30z"/>
  <polygon class="fil28" points="1847,1177 1842,1177 1842,1230 1838,1230 1803,1181 1803,1226 1808,1226 1808,1230 1792,1230 1792,1226 1797,1226 1797,1177 1792,1177 1792,1173 1803,1173 1837,1220 1837,1177 1831,1177 1831,1173 1847,1173 "/>
  <path class="fil28" d="M1905 1201c0,-14 -10,-24 -24,-24 -13,0 -23,10 -23,24 0,14 10,25 23,25 14,0 24,-11 24,-25zm-53 0l0 0c0,-17 13,-29 29,-29 17,0 30,12 30,29 0,17 -13,30 -30,30 -16,0 -29,-13 -29,-30z"/>
  <path class="fil28" d="M1938 1202c10,0 14,-5 14,-12 0,-8 -4,-13 -14,-13l-11 0 0 25 11 0zm2 5l0 0 -13 0 0 19 6 0 0 4 -17 0 0 -4 6 0 0 -49 -6 0 0 -4 23 0c12,0 19,7 19,17 0,7 -4,14 -13,16l13 20 5 0 0 4 -9 0 -14 -23z"/>
  <polygon class="fil28" points="2004,1177 1990,1177 1990,1226 1995,1226 1995,1230 1979,1230 1979,1226 1984,1226 1984,1177 1970,1177 1970,1185 1966,1185 1966,1173 2009,1173 2009,1185 2004,1185 "/>
  <polygon class="fil28" points="2050,1177 2025,1177 2025,1199 2048,1199 2048,1203 2025,1203 2025,1225 2051,1225 2051,1218 2055,1218 2055,1230 2014,1230 2014,1226 2020,1226 2020,1177 2014,1177 2014,1173 2054,1173 2054,1185 2050,1185 "/>
  <path class="fil29" d="M2979 899l129 -109c13,-11 24,-20 33,-29 8,-9 16,-17 21,-25 6,-8 10,-15 12,-23 3,-7 4,-15 4,-24 0,-18 -6,-33 -17,-43 -12,-10 -26,-15 -43,-15 -18,0 -33,5 -46,14 -13,9 -26,23 -41,42l-46 -36c8,-13 18,-24 27,-34 9,-9 19,-18 30,-24 11,-7 23,-12 36,-16 13,-3 28,-5 44,-5 19,0 35,3 50,8 15,5 28,13 39,23 11,9 20,21 26,35 6,14 9,29 9,45l0 2c0,14 -2,27 -6,39 -4,12 -10,24 -18,35 -8,11 -18,22 -30,33 -13,11 -27,24 -43,37l-77 64 178 0 0 58 -271 0 0 -52z"/>
  <path class="fil29" d="M3476 891c18,0 35,-4 51,-11 15,-7 28,-16 39,-28 11,-12 20,-26 26,-42 6,-16 10,-33 10,-51l0 -1c0,-18 -4,-36 -10,-52 -6,-16 -15,-30 -26,-42 -11,-12 -24,-21 -40,-29 -16,-7 -33,-10 -51,-10 -18,0 -35,3 -51,10 -15,7 -29,17 -39,28 -11,12 -20,26 -26,42 -6,16 -10,34 -10,52l0 1c0,18 4,35 10,51 6,17 15,31 26,42 11,12 24,22 40,29 16,7 33,11 51,11zm-1 60l0 0c-29,0 -55,-5 -79,-15 -24,-10 -44,-24 -62,-42 -17,-17 -30,-37 -40,-61 -9,-23 -14,-48 -14,-74l0 -1c0,-27 5,-51 14,-75 10,-23 24,-44 41,-61 17,-18 38,-32 62,-42 24,-10 50,-16 79,-16 29,0 55,5 79,16 24,10 44,24 62,41 17,17 30,38 40,61 9,24 14,48 14,75l0 1c0,26 -5,51 -14,74 -10,24 -24,44 -41,62 -17,17 -38,31 -62,42 -24,10 -50,15 -79,15z"/>
  <path class="fil29" d="M3697 899l128 -109c13,-11 24,-20 33,-29 9,-9 16,-17 22,-25 5,-8 9,-15 12,-23 2,-7 3,-15 3,-24 0,-18 -5,-33 -17,-43 -12,-10 -26,-15 -43,-15 -17,0 -32,5 -45,14 -13,9 -27,23 -41,42l-47 -36c9,-13 18,-24 27,-34 10,-9 20,-18 30,-24 11,-7 23,-12 36,-16 13,-3 28,-5 45,-5 18,0 35,3 50,8 15,5 28,13 39,23 11,9 19,21 25,35 6,14 9,29 9,45l0 2c0,14 -2,27 -6,39 -4,12 -10,24 -18,35 -8,11 -18,22 -30,33 -12,11 -27,24 -43,37l-77 64 178 0 0 58 -270 0 0 -52z"/>
  <path class="fil29" d="M4194 891c18,0 35,-4 50,-11 16,-7 29,-16 40,-28 11,-12 19,-26 26,-42 6,-16 9,-33 9,-51l0 -1c0,-18 -3,-36 -9,-52 -7,-16 -15,-30 -26,-42 -12,-12 -25,-21 -41,-29 -15,-7 -32,-10 -51,-10 -18,0 -35,3 -50,10 -16,7 -29,17 -40,28 -11,12 -20,26 -26,42 -6,16 -9,34 -9,52l0 1c0,18 3,35 9,51 6,17 15,31 26,42 11,12 25,22 40,29 16,7 33,11 52,11zm-2 60l0 0c-28,0 -55,-5 -79,-15 -24,-10 -44,-24 -61,-42 -17,-17 -31,-37 -40,-61 -10,-23 -15,-48 -15,-74l0 -1c0,-27 5,-51 15,-75 9,-23 23,-44 40,-61 18,-18 39,-32 62,-42 24,-10 51,-16 80,-16 28,0 55,5 79,16 23,10 44,24 61,41 17,17 30,38 40,61 10,24 14,48 14,75l0 1c0,26 -4,51 -14,74 -10,24 -23,44 -41,62 -17,17 -38,31 -62,42 -23,10 -50,15 -79,15z"/>
  <path class="fil30" d="M3677 486l0 -12c4,-1 9,-2 13,-2l0 -76c-4,0 -9,-1 -13,-2l0 -13 47 0 0 13c-4,1 -9,2 -14,2l0 74 20 0c1,-4 1,-9 2,-13l15 0 0 29 -70 0zm-54 -68l0 0c-2,-6 -4,-11 -5,-16l0 0c-1,5 -3,11 -5,17l-9 25 28 0 -9 -26zm8 68l0 0 0 -12c3,-1 7,-2 11,-2l-5 -12 -38 0 -5 12c4,0 8,1 11,2l0 12 -39 0 0 -12c3,-1 6,-2 8,-2l32 -91 25 0 33 91c2,0 5,1 8,2l0 12 -41 0zm-73 -40l0 0 0 35c-11,5 -24,7 -37,7 -33,0 -52,-20 -52,-52 0,-33 22,-56 58,-56 10,0 19,1 29,4l0 28 -16 0c0,-5 -1,-9 -1,-13 -5,-1 -9,-1 -13,-1 -21,0 -35,13 -35,36 0,23 12,36 33,36 5,0 9,-1 13,-2l0 -22c-4,0 -9,-1 -13,-2l0 -13 42 0 0 13c-3,1 -6,1 -8,2zm-105 -50l0 0 0 50c0,28 -15,42 -43,42 -33,0 -41,-18 -41,-38l0 -54c-3,0 -7,-1 -9,-2l0 -13 41 0 0 13c-4,1 -8,2 -11,2l0 53c0,13 4,22 21,22 16,0 22,-6 22,-24l0 -51c-3,0 -7,-1 -11,-2l0 -13 41 0 0 13c-3,1 -6,2 -10,2zm-117 15l0 0c0,-5 -1,-9 -2,-13l-16 0 0 74c5,0 10,1 14,2l0 12 -47 0 0 -12c4,-1 8,-2 13,-2l0 -74 -16 0c0,4 -1,8 -2,13l-15 0 0 -30 86 0 0 30 -15 0zm-119 -14l0 0c-2,0 -5,0 -7,1l0 30c1,0 4,0 7,0 12,0 19,-6 19,-16 0,-10 -6,-15 -19,-15zm21 89l0 0 -26 -43 -2 0 0 29c3,0 6,1 9,2l0 12 -43 0 0 -12c4,-1 9,-2 13,-2l0 -76c-4,0 -9,-1 -13,-2l0 -13 12 0c4,0 19,0 31,0 24,0 39,8 39,29 0,15 -10,26 -25,29 2,2 4,5 5,7l16 26c3,0 7,1 11,1l0 13 -27 0zm-119 -88l0 0c-14,0 -28,11 -28,35 0,22 9,37 28,37 13,0 28,-11 28,-36 0,-23 -10,-36 -28,-36zm-2 90l0 0c-32,0 -47,-20 -47,-53 0,-35 23,-55 51,-55 28,0 48,16 48,52 0,35 -23,56 -52,56zm-97 -91l0 0c-3,0 -5,0 -7,0l0 35c2,1 4,1 6,1 12,0 21,-7 21,-19 0,-10 -6,-17 -20,-17zm0 53l0 0c-2,0 -5,0 -7,-1l0 23c5,0 9,1 13,2l0 12 -47 0 0 -12c4,-1 9,-2 14,-2l0 -76c-5,0 -10,-1 -14,-2l0 -13 12 0c5,0 19,0 30,0 26,0 40,12 40,32 0,21 -16,37 -41,37z"/>
  <path class="fil30" d="M2665 384c-93,37 -150,133 -150,282l0 225c0,0 18,-145 150,-186l0 -321z"/>
  <path class="fil29" d="M2709 727c-53,11 -132,54 -155,114 115,-140 351,-4 361,-268 3,-83 4,-186 4,-186 -123,7 -210,40 -210,40l0 300z"/>
  <path class="fil30" d="M2694 803c0,0 -125,10 -136,82 -8,56 136,57 136,57l0 -139z"/>
  <rect class="fil31" width="7441" height="1412"/>
 </g>
</svg>
